<?xml version="1.0" encoding="UTF-8"?>
<!DOCTYPE svg PUBLIC "-//W3C//DTD SVG 1.1//EN" "http://www.w3.org/Graphics/SVG/1.1/DTD/svg11.dtd">
<!-- Creator: CorelDRAW 2020 (64-Bit) -->
<svg xmlns="http://www.w3.org/2000/svg" xml:space="preserve" width="100%" height="100%" version="1.1" style="shape-rendering:geometricPrecision; text-rendering:geometricPrecision; image-rendering:optimizeQuality; fill-rule:evenodd; clip-rule:evenodd"
viewBox="0 0 21590 27940"
 xmlns:xlink="http://www.w3.org/1999/xlink"
 xmlns:xodm="http://www.corel.com/coreldraw/odm/2003">
 <defs>
  <style type="text/css">
   <![CDATA[
    .str0 {stroke:#FCD621;stroke-width:200;stroke-linecap:round;stroke-miterlimit:22.9256}
    .fil1 {fill:none;fill-rule:nonzero}
    .fil2 {fill:#00A0E3}
    .fil0 {fill:#41BCD4;fill-rule:nonzero}
   ]]>
  </style>
 </defs>
 <g id="Слой_x0020_1">
  <metadata id="CorelCorpID_0Corel-Layer"/>
  <g id="_3001241924464">
   <path class="fil0" d="M1220.65 6984.23l612.62 1394.61 0 0 -37.66 -17.83 -37.66 -16.65 -37.64 -15.49 -37.63 -14.31 -37.62 -13.14 -37.62 -11.96 -37.6 -10.8 -37.59 -9.62 -37.58 -8.45 -37.57 -7.28 -37.55 -6.11 -37.55 -4.93 -37.54 -3.77 -37.53 -2.59 -37.51 -1.42 -37.51 -0.25 -37.49 0.93 -37.49 2.09 -37.47 3.27 -37.46 4.44 -37.46 5.61 -37.44 6.78 -37.43 7.96 -37.42 9.13 -37.41 10.29 -37.4 11.47 -37.39 12.65 -37.38 13.81 -37.37 14.99 -37.36 16.16 -37.35 17.33 -37.33 18.5 587.39 -1405.42zm-30.24 7743.66l-63.43 -7039.16 200 -1.8 63.43 7039.16 -100 100.9 -100 -99.1zm100 99.1l-99.11 0 -0.89 -99.1 100 99.1zm12514.89 0l-12514.89 0 0 -200 12514.89 0 0 200zm703.6 -100l-1400 600 18.16 -37.5 17 -37.5 15.82 -37.5 14.65 -37.5 13.47 -37.5 12.31 -37.5 11.13 -37.5 9.96 -37.5 8.79 -37.5 7.62 -37.5 6.44 -37.5 5.28 -37.5 4.1 -37.5 2.93 -37.5 1.75 -37.5 0.59 -37.5 -0.59 -37.5 -1.75 -37.5 -2.93 -37.5 -4.1 -37.5 -5.28 -37.5 -6.44 -37.5 -7.62 -37.5 -8.79 -37.5 -9.96 -37.5 -11.13 -37.5 -12.31 -37.5 -13.47 -37.5 -14.65 -37.5 -15.82 -37.5 -17 -37.5 -18.16 -37.5 0 0 1400 600z"/>
  </g>
  <path class="fil1 str0" d="M1953.07 13192.39c4104.17,-5145.02 3046.13,695.49 6807.06,-1807.64 3020.91,-2010.6 711.25,3082.02 5101.98,-1232.38 82.93,-81.48 718.78,-775.35 786.3,-866.24"/>
  <circle class="fil2" cx="4519.38" cy="11006.56" r="438.68"/>
  <circle class="fil2" cx="11338.76" cy="11945.1" r="438.68"/>
  <circle class="fil2" cx="9915.88" cy="10854.04" r="438.68"/>
  <circle class="fil2" cx="7045.21" cy="12040.64" r="438.68"/>
 </g>
</svg>
